Montserrat-BoldItalic.ufo
<glyph name="at" format="2">
  <advance width="1037"/>
  <unicode hex="0040"/>
  <outline>
    <contour>
      <point x="461" y="-210" type="curve" smooth="yes"/>
      <point x="533" y="-210"/>
      <point x="622" y="-194"/>
      <point x="687" y="-169" type="curve"/>
      <point x="655" y="-48" type="line"/>
      <point x="591" y="-73"/>
      <point x="529" y="-83"/>
      <point x="470" y="-83" type="curve" smooth="yes"/>
      <point x="288" y="-83"/>
      <point x="177" y="28"/>
      <point x="177" y="198" type="curve" smooth="yes"/>
      <point x="177" y="424"/>
      <point x="337" y="587"/>
      <point x="572" y="587" type="curve" smooth="yes"/>
      <point x="772" y="587"/>
      <point x="872" y="495"/>
      <point x="872" y="335" type="curve" smooth="yes"/>
      <point x="872" y="267"/>
      <point x="852" y="138"/>
      <point x="792" y="138" type="curve" smooth="yes"/>
      <point x="761" y="138"/>
      <point x="755" y="162"/>
      <point x="763" y="193" type="curve" smooth="yes"/>
      <point x="820" y="479" type="line"/>
      <point x="628" y="479" type="line"/>
      <point x="617" y="424" type="line"/>
      <point x="590" y="245" type="line"/>
      <point x="581" y="198" type="line"/>
      <point x="576" y="177" type="line" smooth="yes"/>
      <point x="551" y="59"/>
      <point x="605" y="-9"/>
      <point x="737" y="-9" type="curve" smooth="yes"/>
      <point x="909" y="-9"/>
      <point x="1012" y="159"/>
      <point x="1012" y="343" type="curve" smooth="yes"/>
      <point x="1012" y="564"/>
      <point x="853" y="714"/>
      <point x="592" y="714" type="curve" smooth="yes"/>
      <point x="268" y="714"/>
      <point x="21" y="499"/>
      <point x="21" y="187" type="curve" smooth="yes"/>
      <point x="21" y="-46"/>
      <point x="189" y="-210"/>
    </contour>
    <contour>
      <point x="429" y="-9" type="curve" smooth="yes"/>
      <point x="580" y="-9"/>
      <point x="642" y="126"/>
      <point x="642" y="298" type="curve" smooth="yes"/>
      <point x="642" y="414"/>
      <point x="595" y="488"/>
      <point x="485" y="488" type="curve" smooth="yes"/>
      <point x="346" y="488"/>
      <point x="243" y="354"/>
      <point x="243" y="202" type="curve" smooth="yes"/>
      <point x="243" y="71"/>
      <point x="330" y="-9"/>
    </contour>
    <contour>
      <point x="500" y="148" type="curve" smooth="yes"/>
      <point x="465" y="148"/>
      <point x="440" y="173"/>
      <point x="440" y="223" type="curve" smooth="yes"/>
      <point x="440" y="294"/>
      <point x="476" y="331"/>
      <point x="520" y="331" type="curve" smooth="yes"/>
      <point x="558" y="331"/>
      <point x="585" y="306"/>
      <point x="585" y="257" type="curve" smooth="yes"/>
      <point x="585" y="199"/>
      <point x="555" y="148"/>
    </contour>
  </outline>
</glyph>
<glyph name="B" format="2">
  <advance width="773"/>
  <unicode hex="0042"/>
  <anchor x="327" y="0" name="bottom"/>
  <anchor x="467" y="700" name="top"/>
  <outline>
    <contour>
      <point x="2" y="0" type="line"/>
      <point x="406" y="0" type="line" smooth="yes"/>
      <point x="585" y="0"/>
      <point x="733" y="68"/>
      <point x="733" y="223" type="curve" smooth="yes"/>
      <point x="733" y="325"/>
      <point x="646" y="385"/>
      <point x="503" y="385" type="curve"/>
      <point x="473" y="331" type="line"/>
      <point x="643" y="331"/>
      <point x="764" y="403"/>
      <point x="764" y="533" type="curve" smooth="yes"/>
      <point x="764" y="639"/>
      <point x="679" y="700"/>
      <point x="513" y="700" type="curve" smooth="yes"/>
      <point x="142" y="700" type="line"/>
    </contour>
    <contour>
      <point x="267" y="165" type="line"/>
      <point x="341" y="535" type="line"/>
      <point x="456" y="535" type="line" smooth="yes"/>
      <point x="495" y="535"/>
      <point x="518" y="521"/>
      <point x="518" y="492" type="curve" smooth="yes"/>
      <point x="518" y="454"/>
      <point x="494" y="431"/>
      <point x="440" y="431" type="curve" smooth="yes"/>
      <point x="304" y="431" type="line"/>
      <point x="273" y="275" type="line"/>
      <point x="441" y="275" type="line" smooth="yes"/>
      <point x="472" y="275"/>
      <point x="499" y="260"/>
      <point x="499" y="229" type="curve" smooth="yes"/>
      <point x="499" y="186"/>
      <point x="465" y="165"/>
      <point x="419" y="165" type="curve" smooth="yes"/>
    </contour>
  </outline>
</glyph>
<glyph name="X" format="2">
  <advance width="762"/>
  <unicode hex="0058"/>
  <outline>
    <contour>
      <point x="-64" y="0" type="line"/>
      <point x="218" y="0" type="line"/>
      <point x="437" y="260" type="line"/>
      <point x="330" y="262" type="line"/>
      <point x="457" y="0" type="line"/>
      <point x="712" y="0" type="line"/>
      <point x="482" y="426" type="line"/>
      <point x="474" y="293" type="line"/>
      <point x="843" y="700" type="line"/>
      <point x="577" y="700" type="line"/>
      <point x="361" y="449" type="line"/>
      <point x="463" y="451" type="line"/>
      <point x="341" y="700" type="line"/>
      <point x="89" y="700" type="line"/>
      <point x="300" y="296" type="line"/>
      <point x="331" y="433" type="line"/>
    </contour>
  </outline>
</glyph>
<glyph name="e" format="2">
  <advance width="648"/>
  <unicode hex="0065"/>
  <guideline x="280" y="80" angle="90"/>
  <anchor x="277" y="0" name="bottom"/>
  <anchor x="500" y="0" name="ogonek"/>
  <anchor x="384" y="547" name="top"/>
  <outline>
    <contour>
      <point x="321" y="-10" type="curve" smooth="yes"/>
      <point x="404" y="-10"/>
      <point x="485" y="7"/>
      <point x="560" y="58" type="curve"/>
      <point x="466" y="195" type="line"/>
      <point x="431" y="169"/>
      <point x="388" y="157"/>
      <point x="347" y="157" type="curve" smooth="yes"/>
      <point x="276" y="157"/>
      <point x="239" y="183"/>
      <point x="239" y="251" type="curve" smooth="yes"/>
      <point x="239" y="327"/>
      <point x="267" y="403"/>
      <point x="349" y="403" type="curve" smooth="yes"/>
      <point x="406" y="403"/>
      <point x="442" y="364"/>
      <point x="427" y="301" type="curve"/>
      <point x="521" y="330" type="line"/>
      <point x="221" y="330" type="line"/>
      <point x="200" y="221" type="line"/>
      <point x="625" y="221" type="line"/>
      <point x="632" y="250"/>
      <point x="637" y="282"/>
      <point x="637" y="316" type="curve" smooth="yes"/>
      <point x="637" y="457"/>
      <point x="534" y="557"/>
      <point x="359" y="557" type="curve" smooth="yes"/>
      <point x="155" y="557"/>
      <point x="20" y="423"/>
      <point x="20" y="243" type="curve" smooth="yes"/>
      <point x="20" y="88"/>
      <point x="141" y="-10"/>
    </contour>
  </outline>
</glyph>
<glyph name="t" format="2">
  <advance width="460"/>
  <unicode hex="0074"/>
  <anchor x="219" y="0" name="bottom"/>
  <anchor x="204" y="261" name="center"/>
  <anchor x="267" y="670" name="top"/>
  <anchor x="442" y="742" name="topright"/>
  <outline>
    <contour>
      <point x="257" y="-10" type="curve" smooth="yes"/>
      <point x="310" y="-10"/>
      <point x="363" y="-1"/>
      <point x="405" y="22" type="curve"/>
      <point x="379" y="174" type="line"/>
      <point x="362" y="166"/>
      <point x="347" y="161"/>
      <point x="329" y="161" type="curve" smooth="yes"/>
      <point x="298" y="161"/>
      <point x="282" y="178"/>
      <point x="289" y="215" type="curve" smooth="yes"/>
      <point x="380" y="670" type="line"/>
      <point x="154" y="670" type="line"/>
      <point x="63" y="214" type="line" smooth="yes"/>
      <point x="34" y="71"/>
      <point x="116" y="-10"/>
    </contour>
    <contour>
      <point x="15" y="352" type="line"/>
      <point x="428" y="352" type="line"/>
      <point x="461" y="517" type="line"/>
      <point x="48" y="517" type="line"/>
    </contour>
  </outline>
</glyph>
<glyph name="periodcentered" format="2">
  <advance width="344"/>
  <unicode hex="00B7"/>
  <outline>
    <contour>
      <point x="166" y="160" type="curve" smooth="yes"/>
      <point x="243" y="160"/>
      <point x="307" y="215"/>
      <point x="307" y="299" type="curve" smooth="yes"/>
      <point x="307" y="370"/>
      <point x="258" y="418"/>
      <point x="184" y="418" type="curve" smooth="yes"/>
      <point x="105" y="418"/>
      <point x="42" y="363"/>
      <point x="42" y="279" type="curve" smooth="yes"/>
      <point x="42" y="210"/>
      <point x="93" y="160"/>
    </contour>
  </outline>
</glyph>
<glyph name="eogonek" format="2">
  <advance width="648"/>
  <unicode hex="0119"/>
  <anchor x="385" y="547" name="top"/>
  <outline>
    <contour>
      <point x="377" y="-240" type="curve" smooth="yes"/>
      <point x="419" y="-240"/>
      <point x="457" y="-230"/>
      <point x="483" y="-217" type="curve"/>
      <point x="474" y="-124" type="line"/>
      <point x="459" y="-131"/>
      <point x="435" y="-138"/>
      <point x="416" y="-138" type="curve" smooth="yes"/>
      <point x="388" y="-138"/>
      <point x="370" y="-122"/>
      <point x="370" y="-97" type="curve" smooth="yes"/>
      <point x="370" y="-49"/>
      <point x="425" y="-16"/>
      <point x="497" y="22" type="curve" smooth="yes"/>
      <point x="515" y="32"/>
      <point x="543" y="45"/>
      <point x="560" y="58" type="curve"/>
      <point x="466" y="195" type="line"/>
      <point x="431" y="169"/>
      <point x="389" y="157"/>
      <point x="350" y="157" type="curve" smooth="yes"/>
      <point x="277" y="157"/>
      <point x="239" y="183"/>
      <point x="239" y="251" type="curve" smooth="yes"/>
      <point x="239" y="327"/>
      <point x="266" y="403"/>
      <point x="349" y="403" type="curve" smooth="yes"/>
      <point x="406" y="403"/>
      <point x="442" y="364"/>
      <point x="427" y="301" type="curve"/>
      <point x="522" y="330" type="line"/>
      <point x="222" y="330" type="line"/>
      <point x="201" y="221" type="line"/>
      <point x="625" y="221" type="line"/>
      <point x="632" y="250"/>
      <point x="637" y="282"/>
      <point x="637" y="316" type="curve" smooth="yes"/>
      <point x="637" y="457"/>
      <point x="535" y="557"/>
      <point x="360" y="557" type="curve" smooth="yes"/>
      <point x="156" y="557"/>
      <point x="20" y="423"/>
      <point x="20" y="243" type="curve" smooth="yes"/>
      <point x="20" y="88"/>
      <point x="141" y="-10"/>
      <point x="322" y="-10" type="curve" smooth="yes"/>
      <point x="346" y="-10"/>
      <point x="367" y="-8"/>
      <point x="393" y="0" type="curve"/>
      <point x="373" y="24" type="line"/>
      <point x="299" y="1"/>
      <point x="234" y="-64"/>
      <point x="234" y="-132" type="curve" smooth="yes"/>
      <point x="234" y="-200"/>
      <point x="291" y="-240"/>
    </contour>
  </outline>
</glyph>
<glyph name="oe" format="2">
  <advance width="1053"/>
  <unicode hex="0153"/>
  <anchor x="485" y="0" name="bottom"/>
  <anchor x="594" y="547" name="top"/>
  <outline>
    <contour>
      <point x="304" y="-10" type="curve" smooth="yes"/>
      <point x="493" y="-10"/>
      <point x="627" y="124"/>
      <point x="627" y="304" type="curve" smooth="yes"/>
      <point x="627" y="457"/>
      <point x="518" y="557"/>
      <point x="348" y="557" type="curve" smooth="yes"/>
      <point x="155" y="557"/>
      <point x="20" y="423"/>
      <point x="20" y="243" type="curve" smooth="yes"/>
      <point x="20" y="90"/>
      <point x="131" y="-10"/>
    </contour>
    <contour>
      <point x="330" y="168" type="curve" smooth="yes"/>
      <point x="279" y="168"/>
      <point x="249" y="203"/>
      <point x="249" y="254" type="curve" smooth="yes"/>
      <point x="249" y="330"/>
      <point x="289" y="379"/>
      <point x="348" y="379" type="curve" smooth="yes"/>
      <point x="399" y="379"/>
      <point x="429" y="344"/>
      <point x="429" y="293" type="curve" smooth="yes"/>
      <point x="429" y="217"/>
      <point x="389" y="168"/>
    </contour>
    <contour>
      <point x="726" y="-10" type="curve" smooth="yes"/>
      <point x="809" y="-10"/>
      <point x="890" y="7"/>
      <point x="965" y="58" type="curve"/>
      <point x="871" y="195" type="line"/>
      <point x="836" y="169"/>
      <point x="793" y="157"/>
      <point x="752" y="157" type="curve" smooth="yes"/>
      <point x="681" y="157"/>
      <point x="644" y="183"/>
      <point x="644" y="251" type="curve" smooth="yes"/>
      <point x="644" y="327"/>
      <point x="672" y="403"/>
      <point x="754" y="403" type="curve" smooth="yes"/>
      <point x="811" y="403"/>
      <point x="847" y="364"/>
      <point x="832" y="301" type="curve"/>
      <point x="926" y="330" type="line"/>
      <point x="626" y="330" type="line"/>
      <point x="605" y="221" type="line"/>
      <point x="1030" y="221" type="line"/>
      <point x="1037" y="250"/>
      <point x="1042" y="282"/>
      <point x="1042" y="316" type="curve" smooth="yes"/>
      <point x="1042" y="457"/>
      <point x="939" y="557"/>
      <point x="764" y="557" type="curve" smooth="yes"/>
      <point x="580" y="557"/>
      <point x="445" y="423"/>
      <point x="445" y="243" type="curve" smooth="yes"/>
      <point x="445" y="88"/>
      <point x="566" y="-10"/>
    </contour>
  </outline>
</glyph>
<glyph name="Schwa" format="2">
  <advance width="818"/>
  <unicode hex="018F"/>
  <anchor x="354" y="0" name="bottom"/>
  <anchor x="494" y="700" name="top"/>
  <outline>
    <contour>
      <point x="393" y="-16" type="curve" smooth="yes"/>
      <point x="623" y="-16"/>
      <point x="804" y="138"/>
      <point x="804" y="393" type="curve" smooth="yes"/>
      <point x="804" y="587"/>
      <point x="657" y="716"/>
      <point x="440" y="716" type="curve" smooth="yes"/>
      <point x="322" y="716"/>
      <point x="207" y="678"/>
      <point x="119" y="604" type="curve"/>
      <point x="228" y="451" type="line"/>
      <point x="286" y="500"/>
      <point x="352" y="525"/>
      <point x="422" y="525" type="curve" smooth="yes"/>
      <point x="511" y="525"/>
      <point x="567" y="474"/>
      <point x="567" y="391" type="curve" smooth="yes"/>
      <point x="567" y="318"/>
      <point x="542" y="157"/>
      <point x="400" y="157" type="curve" smooth="yes"/>
      <point x="307" y="157"/>
      <point x="270" y="212"/>
      <point x="270" y="268" type="curve" smooth="yes"/>
      <point x="270" y="284"/>
      <point x="272" y="298"/>
      <point x="276" y="312" type="curve"/>
      <point x="190" y="268" type="line"/>
      <point x="575" y="268" type="line"/>
      <point x="601" y="398" type="line"/>
      <point x="54" y="398" type="line"/>
      <point x="43" y="355"/>
      <point x="38" y="314"/>
      <point x="38" y="284" type="curve" smooth="yes"/>
      <point x="38" y="109"/>
      <point x="180" y="-16"/>
    </contour>
  </outline>
</glyph>
<glyph name="Oogonek" format="2">
  <advance width="848"/>
  <unicode hex="01EA"/>
  <anchor x="509" y="700" name="top"/>
  <outline>
    <contour>
      <point x="366" y="-240" type="curve" smooth="yes"/>
      <point x="409" y="-240"/>
      <point x="447" y="-230"/>
      <point x="474" y="-217" type="curve"/>
      <point x="465" y="-124" type="line"/>
      <point x="449" y="-131"/>
      <point x="427" y="-138"/>
      <point x="405" y="-138" type="curve" smooth="yes"/>
      <point x="377" y="-138"/>
      <point x="359" y="-122"/>
      <point x="359" y="-97" type="curve" smooth="yes"/>
      <point x="359" y="-67"/>
      <point x="383" y="-27"/>
      <point x="486" y="-9" type="curve" smooth="yes"/>
      <point x="695" y="28"/>
      <point x="837" y="186"/>
      <point x="837" y="403" type="curve" smooth="yes"/>
      <point x="837" y="587"/>
      <point x="700" y="716"/>
      <point x="482" y="716" type="curve" smooth="yes"/>
      <point x="225" y="716"/>
      <point x="41" y="544"/>
      <point x="41" y="297" type="curve" smooth="yes"/>
      <point x="41" y="113"/>
      <point x="178" y="-16"/>
      <point x="396" y="-16" type="curve"/>
      <point x="368" y="29" type="line"/>
      <point x="284" y="-4"/>
      <point x="220" y="-59"/>
      <point x="220" y="-132" type="curve" smooth="yes"/>
      <point x="220" y="-200"/>
      <point x="278" y="-240"/>
    </contour>
    <contour>
      <point x="416" y="175" type="curve" smooth="yes"/>
      <point x="330" y="175"/>
      <point x="279" y="230"/>
      <point x="279" y="311" type="curve" smooth="yes"/>
      <point x="279" y="426"/>
      <point x="346" y="525"/>
      <point x="462" y="525" type="curve" smooth="yes"/>
      <point x="548" y="525"/>
      <point x="599" y="470"/>
      <point x="599" y="389" type="curve" smooth="yes"/>
      <point x="599" y="274"/>
      <point x="532" y="175"/>
    </contour>
  </outline>
</glyph>
<glyph name="circumflexcomb" format="2">
  <unicode hex="0302"/>
  <anchor x="355" y="547" name="_top"/>
  <anchor x="396" y="750" name="top"/>
  <outline>
    <contour>
      <point x="143" y="607" type="line"/>
      <point x="287" y="607" type="line"/>
      <point x="448" y="737" type="line"/>
      <point x="332" y="737" type="line"/>
      <point x="455" y="607" type="line"/>
      <point x="591" y="607" type="line"/>
      <point x="487" y="767" type="line"/>
      <point x="295" y="767" type="line"/>
    </contour>
  </outline>
</glyph>
<glyph name="commaturnedabovecomb" format="2">
  <unicode hex="0312"/>
  <anchor x="355" y="547" name="_top"/>
  <anchor x="406" y="800" name="top"/>
  <outline>
    <contour>
      <point x="372" y="597" type="curve" smooth="yes"/>
      <point x="449" y="597"/>
      <point x="488" y="634"/>
      <point x="488" y="684" type="curve" smooth="yes"/>
      <point x="488" y="723"/>
      <point x="455" y="745"/>
      <point x="391" y="745" type="curve"/>
      <point x="410" y="672" type="line"/>
      <point x="508" y="837" type="line"/>
      <point x="390" y="837" type="line"/>
      <point x="319" y="752" type="line" smooth="yes"/>
      <point x="282" y="707"/>
      <point x="272" y="689"/>
      <point x="272" y="663" type="curve" smooth="yes"/>
      <point x="272" y="626"/>
      <point x="304" y="597"/>
    </contour>
  </outline>
</glyph>
<glyph name="brevebelowcomb" format="2">
  <unicode hex="032E"/>
  <anchor x="246" y="0" name="_bottom"/>
  <anchor x="206" y="-198" name="bottom"/>
  <outline>
    <contour>
      <point x="219" y="-225" type="curve" smooth="yes"/>
      <point x="333" y="-225"/>
      <point x="421" y="-165"/>
      <point x="442" y="-67" type="curve"/>
      <point x="303" y="-67" type="line"/>
      <point x="294" y="-102"/>
      <point x="266" y="-124"/>
      <point x="223" y="-124" type="curve" smooth="yes"/>
      <point x="181" y="-124"/>
      <point x="154" y="-102"/>
      <point x="155" y="-67" type="curve"/>
      <point x="24" y="-67" type="line"/>
      <point x="14" y="-155"/>
      <point x="94" y="-225"/>
    </contour>
  </outline>
</glyph>
<glyph name="macronbelowcomb" format="2">
  <unicode hex="0331"/>
  <anchor x="246" y="0" name="_bottom"/>
  <anchor x="211" y="-176" name="bottom"/>
  <outline>
    <contour>
      <point x="-2" y="-192" type="line"/>
      <point x="418" y="-192" type="line"/>
      <point x="441" y="-74" type="line"/>
      <point x="21" y="-74" type="line"/>
    </contour>
  </outline>
</glyph>
<glyph name="Omega" format="2">
  <advance width="878"/>
  <unicode hex="03A9"/>
  <outline>
    <contour>
      <point x="-47" y="0" type="line"/>
      <point x="343" y="0" type="line"/>
      <point x="377" y="170" type="line"/>
      <point x="325" y="201"/>
      <point x="296" y="260"/>
      <point x="296" y="325" type="curve" smooth="yes"/>
      <point x="296" y="436"/>
      <point x="367" y="525"/>
      <point x="482" y="525" type="curve" smooth="yes"/>
      <point x="556" y="525"/>
      <point x="617" y="481"/>
      <point x="617" y="399" type="curve" smooth="yes"/>
      <point x="617" y="304"/>
      <point x="556" y="212"/>
      <point x="459" y="170" type="curve"/>
      <point x="425" y="0" type="line"/>
      <point x="815" y="0" type="line"/>
      <point x="852" y="183" type="line"/>
      <point x="735" y="183" type="line"/>
      <point x="809" y="246"/>
      <point x="857" y="343"/>
      <point x="857" y="439" type="curve" smooth="yes"/>
      <point x="857" y="606"/>
      <point x="710" y="716"/>
      <point x="512" y="716" type="curve" smooth="yes"/>
      <point x="269" y="716"/>
      <point x="66" y="564"/>
      <point x="66" y="338" type="curve" smooth="yes"/>
      <point x="66" y="277"/>
      <point x="84" y="223"/>
      <point x="115" y="183" type="curve"/>
      <point x="-10" y="183" type="line"/>
    </contour>
  </outline>
</glyph>
<glyph name="I-cy" format="2">
  <advance width="350"/>
  <unicode hex="0406"/>
  <anchor x="120" y="0" name="bottom"/>
  <anchor x="238" y="0" name="ogonek"/>
  <anchor x="260" y="700" name="top"/>
  <anchor x="76" y="700" name="topleft"/>
  <outline>
    <contour>
      <point x="2" y="0" type="line"/>
      <point x="238" y="0" type="line"/>
      <point x="378" y="700" type="line"/>
      <point x="142" y="700" type="line"/>
    </contour>
  </outline>
</glyph>
<glyph name="De-cy" format="2">
  <advance width="863"/>
  <unicode hex="0414"/>
  <outline>
    <contour>
      <point x="487" y="100" type="line"/>
      <point x="719" y="100" type="line"/>
      <point x="839" y="700" type="line"/>
      <point x="247" y="700" type="line"/>
      <point x="198" y="496" type="line"/>
      <point x="155" y="318"/>
      <point x="97" y="183"/>
      <point x="10" y="183" type="curve"/>
      <point x="265" y="148" type="line"/>
      <point x="327" y="201"/>
      <point x="361" y="312"/>
      <point x="396" y="458" type="curve" smooth="yes"/>
      <point x="410" y="517" type="line"/>
      <point x="571" y="517" type="line"/>
    </contour>
    <contour>
      <point x="-66" y="-137" type="line"/>
      <point x="150" y="-137" type="line"/>
      <point x="177" y="0" type="line"/>
      <point x="575" y="0" type="line"/>
      <point x="548" y="-137" type="line"/>
      <point x="764" y="-137" type="line"/>
      <point x="828" y="183" type="line"/>
      <point x="-2" y="183" type="line"/>
    </contour>
  </outline>
</glyph>
<glyph name="Zhe-cy" format="2">
  <advance width="1141"/>
  <unicode hex="0416"/>
  <guideline x="376" y="174" angle="0"/>
  <guideline x="420" y="239" angle="0"/>
  <anchor x="813" y="0" name="bottomleft"/>
  <anchor x="1079" y="0" name="bottomright"/>
  <anchor x="659" y="700" name="top"/>
  <outline>
    <contour>
      <point x="813" y="0" type="line"/>
      <point x="1079" y="0" type="line"/>
      <point x="942" y="438" type="line"/>
      <point x="727" y="328" type="line"/>
    </contour>
    <contour>
      <point x="616" y="253" type="line"/>
      <point x="849" y="253" type="line"/>
      <point x="886" y="439" type="line"/>
      <point x="653" y="439" type="line"/>
    </contour>
    <contour>
      <point x="939" y="325" type="line"/>
      <point x="1214" y="700" type="line"/>
      <point x="963" y="700" type="line"/>
      <point x="720" y="347" type="line"/>
    </contour>
    <contour>
      <point x="227" y="0" type="line"/>
      <point x="442" y="328" type="line"/>
      <point x="261" y="438" type="line"/>
      <point x="-49" y="0" type="line"/>
    </contour>
    <contour>
      <point x="633" y="0" type="line"/>
      <point x="773" y="700" type="line"/>
      <point x="543" y="700" type="line"/>
      <point x="403" y="0" type="line"/>
    </contour>
    <contour>
      <point x="522" y="253" type="line"/>
      <point x="559" y="439" type="line"/>
      <point x="324" y="439" type="line"/>
      <point x="287" y="253" type="line"/>
    </contour>
    <contour>
      <point x="232" y="325" type="line"/>
      <point x="445" y="347" type="line"/>
      <point x="347" y="700" type="line"/>
      <point x="106" y="700" type="line"/>
    </contour>
  </outline>
</glyph>
<glyph name="Che-cy" format="2">
  <advance width="764"/>
  <unicode hex="0427"/>
  <anchor x="415" y="0" name="bottomleft"/>
  <anchor x="689" y="0" name="bottomright"/>
  <anchor x="457" y="700" name="top"/>
  <outline>
    <contour>
      <point x="500" y="232" type="curve"/>
      <point x="519" y="424" type="line"/>
      <point x="487" y="405"/>
      <point x="441" y="390"/>
      <point x="381" y="390" type="curve" smooth="yes"/>
      <point x="313" y="390"/>
      <point x="289" y="421"/>
      <point x="306" y="506" type="curve" smooth="yes"/>
      <point x="345" y="700" type="line"/>
      <point x="113" y="700" type="line"/>
      <point x="73" y="498" type="line" smooth="yes"/>
      <point x="36" y="311"/>
      <point x="131" y="203"/>
      <point x="344" y="203" type="curve" smooth="yes"/>
      <point x="385" y="203"/>
      <point x="435" y="210"/>
    </contour>
    <contour>
      <point x="415" y="0" type="line"/>
      <point x="647" y="0" type="line"/>
      <point x="787" y="700" type="line"/>
      <point x="555" y="700" type="line"/>
    </contour>
  </outline>
</glyph>
<glyph name="el-cy" format="2">
  <advance width="695"/>
  <unicode hex="043B"/>
  <anchor x="361" y="0" name="#exit"/>
  <anchor x="361" y="0" name="bottomleft"/>
  <outline>
    <contour>
      <point x="-45" y="0" type="line"/>
      <point x="-7" y="-10"/>
      <point x="25" y="-15"/>
      <point x="62" y="-15" type="curve" smooth="yes"/>
      <point x="198" y="-15"/>
      <point x="256" y="54"/>
      <point x="315" y="300" type="curve" smooth="yes"/>
      <point x="344" y="421" type="line"/>
      <point x="288" y="371" type="line"/>
      <point x="484" y="371" type="line"/>
      <point x="445" y="418" type="line"/>
      <point x="361" y="0" type="line"/>
      <point x="587" y="0" type="line"/>
      <point x="696" y="547" type="line"/>
      <point x="175" y="547" type="line"/>
      <point x="119" y="309" type="line" smooth="yes"/>
      <point x="97" y="216"/>
      <point x="75" y="181"/>
      <point x="25" y="181" type="curve" smooth="yes"/>
      <point x="16" y="181"/>
      <point x="11" y="182"/>
      <point x="1" y="183" type="curve"/>
    </contour>
  </outline>
</glyph>
<glyph name="Ertick-cy" format="2">
  <advance width="738"/>
  <unicode hex="048E"/>
  <outline>
    <contour>
      <point x="628" y="138" type="line"/>
      <point x="432" y="458" type="line"/>
      <point x="358" y="402" type="line"/>
      <point x="553" y="82" type="line"/>
    </contour>
    <component base="P" xOffset="5"/>
  </outline>
</glyph>
<glyph name="Gheupturn-cy" format="2">
  <advance width="611"/>
  <unicode hex="0490"/>
  <outline>
    <contour>
      <point x="7" y="0" type="line"/>
      <point x="239" y="0" type="line"/>
      <point x="343" y="517" type="line"/>
      <point x="644" y="517" type="line"/>
      <point x="709" y="843" type="line"/>
      <point x="493" y="843" type="line"/>
      <point x="464" y="700" type="line"/>
      <point x="147" y="700" type="line"/>
    </contour>
  </outline>
</glyph>
<glyph name="gheupturn-cy" format="2">
  <advance width="542"/>
  <unicode hex="0491"/>
  <outline>
    <contour>
      <point x="-2" y="0" type="line"/>
      <point x="223" y="0" type="line"/>
      <point x="297" y="371" type="line"/>
      <point x="550" y="371" type="line"/>
      <point x="608" y="659" type="line"/>
      <point x="398" y="659" type="line"/>
      <point x="376" y="547" type="line"/>
      <point x="108" y="547" type="line"/>
    </contour>
  </outline>
</glyph>
<glyph name="Kahook-cy" format="2">
  <advance width="778"/>
  <unicode hex="04C3"/>
  <guideline x="708" y="361" angle="90"/>
  <outline>
    <contour>
      <point x="426" y="-209" type="curve" smooth="yes"/>
      <point x="593" y="-209"/>
      <point x="705" y="-115"/>
      <point x="705" y="27" type="curve" smooth="yes"/>
      <point x="705" y="117"/>
      <point x="661" y="221"/>
      <point x="537" y="418" type="curve"/>
      <point x="344" y="307" type="line"/>
      <point x="406" y="205"/>
      <point x="455" y="82"/>
      <point x="455" y="21" type="curve" smooth="yes"/>
      <point x="455" y="-11"/>
      <point x="441" y="-29"/>
      <point x="410" y="-29" type="curve" smooth="yes"/>
      <point x="396" y="-29"/>
      <point x="383" y="-25"/>
      <point x="369" y="-19" type="curve"/>
      <point x="284" y="-179" type="line"/>
      <point x="326" y="-199"/>
      <point x="372" y="-209"/>
    </contour>
    <contour>
      <point x="7" y="0" type="line"/>
      <point x="243" y="0" type="line"/>
      <point x="383" y="700" type="line"/>
      <point x="147" y="700" type="line"/>
    </contour>
    <contour>
      <point x="226" y="253" type="line"/>
      <point x="491" y="253" type="line"/>
      <point x="528" y="439" type="line"/>
      <point x="263" y="439" type="line"/>
    </contour>
    <contour>
      <point x="548" y="325" type="line"/>
      <point x="853" y="700" type="line"/>
      <point x="591" y="700" type="line"/>
      <point x="320" y="347" type="line"/>
    </contour>
  </outline>
</glyph>
<glyph name="Chekhakassian-cy" format="2">
  <advance width="759"/>
  <unicode hex="04CB"/>
  <outline>
    <contour>
      <point x="351" y="252" type="curve" smooth="yes"/>
      <point x="391" y="252"/>
      <point x="442" y="259"/>
      <point x="507" y="281" type="curve"/>
      <point x="525" y="473" type="line"/>
      <point x="494" y="454"/>
      <point x="447" y="439"/>
      <point x="388" y="439" type="curve" smooth="yes"/>
      <point x="319" y="439"/>
      <point x="295" y="464"/>
      <point x="309" y="535" type="curve" smooth="yes"/>
      <point x="342" y="700" type="line"/>
      <point x="110" y="700" type="line"/>
      <point x="76" y="527" type="line" smooth="yes"/>
      <point x="41" y="353"/>
      <point x="137" y="252"/>
    </contour>
    <contour>
      <point x="253" y="-137" type="line"/>
      <point x="469" y="-137" type="line"/>
      <point x="505" y="51" type="line"/>
      <point x="484" y="0" type="line"/>
      <point x="642" y="0" type="line"/>
      <point x="679" y="183" type="line"/>
      <point x="317" y="183" type="line"/>
    </contour>
    <contour>
      <point x="410" y="0" type="line"/>
      <point x="642" y="0" type="line"/>
      <point x="782" y="700" type="line"/>
      <point x="550" y="700" type="line"/>
    </contour>
  </outline>
</glyph>
<glyph name="Hahook-cy" format="2">
  <advance width="777"/>
  <unicode hex="04FC"/>
  <outline>
    <contour>
      <point x="-52" y="0" type="line"/>
      <point x="230" y="0" type="line"/>
      <point x="855" y="700" type="line"/>
      <point x="589" y="700" type="line"/>
      <point x="439" y="525" type="line"/>
      <point x="353" y="700" type="line"/>
      <point x="101" y="700" type="line"/>
      <point x="278" y="362" type="line"/>
    </contour>
    <contour>
      <point x="424" y="-210" type="curve" smooth="yes"/>
      <point x="587" y="-210"/>
      <point x="701" y="-112"/>
      <point x="701" y="28" type="curve" smooth="yes"/>
      <point x="701" y="109"/>
      <point x="648" y="211"/>
      <point x="505" y="402" type="curve"/>
      <point x="349" y="238" type="line"/>
      <point x="410" y="139"/>
      <point x="443" y="61"/>
      <point x="443" y="20" type="curve" smooth="yes"/>
      <point x="443" y="-10"/>
      <point x="425" y="-28"/>
      <point x="397" y="-28" type="curve" smooth="yes"/>
      <point x="386" y="-28"/>
      <point x="373" y="-25"/>
      <point x="359" y="-19" type="curve"/>
      <point x="274" y="-179" type="line"/>
      <point x="318" y="-199"/>
      <point x="371" y="-210"/>
    </contour>
  </outline>
</glyph>
<glyph name="hastroke-cy" format="2">
  <advance width="663"/>
  <unicode hex="04FF"/>
  <outline>
    <contour>
      <point x="53" y="212" type="line"/>
      <point x="587" y="212" type="line"/>
      <point x="611" y="332" type="line"/>
      <point x="77" y="332" type="line"/>
    </contour>
    <contour>
      <point x="-60" y="0" type="line"/>
      <point x="195" y="0" type="line"/>
      <point x="372" y="193" type="line"/>
      <point x="264" y="193" type="line"/>
      <point x="360" y="0" type="line"/>
      <point x="600" y="0" type="line"/>
      <point x="423" y="332" type="line"/>
      <point x="403" y="216" type="line"/>
      <point x="721" y="547" type="line"/>
      <point x="474" y="547" type="line"/>
      <point x="299" y="358" type="line"/>
      <point x="403" y="358" type="line"/>
      <point x="308" y="547" type="line"/>
      <point x="71" y="547" type="line"/>
      <point x="240" y="227" type="line"/>
      <point x="272" y="340" type="line"/>
    </contour>
  </outline>
</glyph>
<glyph name="guilsinglleft" format="2">
  <advance width="378"/>
  <unicode hex="2039"/>
  <outline>
    <contour>
      <point x="123" y="74" type="line"/>
      <point x="319" y="74" type="line"/>
      <point x="183" y="366" type="line"/>
      <point x="168" y="197" type="line"/>
      <point x="407" y="474" type="line"/>
      <point x="203" y="474" type="line"/>
      <point x="25" y="274" type="line"/>
    </contour>
  </outline>
</glyph>
<glyph name="euro" format="2">
  <advance width="835"/>
  <unicode hex="20AC"/>
  <guideline x="185" y="350" angle="90"/>
  <outline>
    <contour>
      <point x="20" y="225" type="line"/>
      <point x="562" y="225" type="line"/>
      <point x="584" y="337" type="line"/>
      <point x="42" y="337" type="line"/>
    </contour>
    <contour>
      <point x="48" y="363" type="line"/>
      <point x="590" y="363" type="line"/>
      <point x="612" y="475" type="line"/>
      <point x="70" y="475" type="line"/>
    </contour>
    <contour>
      <point x="491" y="-16" type="curve" smooth="yes"/>
      <point x="620" y="-16"/>
      <point x="724" y="19"/>
      <point x="809" y="123" type="curve"/>
      <point x="670" y="256" type="line"/>
      <point x="622" y="198"/>
      <point x="569" y="175"/>
      <point x="514" y="175" type="curve" smooth="yes"/>
      <point x="427" y="175"/>
      <point x="370" y="230"/>
      <point x="370" y="312" type="curve" smooth="yes"/>
      <point x="370" y="437"/>
      <point x="448" y="525"/>
      <point x="559" y="525" type="curve" smooth="yes"/>
      <point x="623" y="525"/>
      <point x="669" y="495"/>
      <point x="699" y="443" type="curve"/>
      <point x="869" y="576" type="line"/>
      <point x="818" y="666"/>
      <point x="708" y="716"/>
      <point x="574" y="716" type="curve" smooth="yes"/>
      <point x="315" y="716"/>
      <point x="132" y="543"/>
      <point x="132" y="297" type="curve" smooth="yes"/>
      <point x="132" y="111"/>
      <point x="274" y="-16"/>
    </contour>
  </outline>
</glyph>
<glyph name="hryvnia" format="2">
  <advance width="832"/>
  <unicode hex="20B4"/>
  <outline>
    <contour>
      <point x="99" y="42"/>
      <point x="230" y="-17"/>
      <point x="395" y="-17" type="curve" smooth="yes"/>
      <point x="487" y="-17"/>
      <point x="590" y="1"/>
      <point x="689" y="33" type="curve"/>
      <point x="652" y="211" type="line"/>
      <point x="600" y="187"/>
      <point x="482" y="163"/>
      <point x="401" y="163" type="curve" smooth="yes"/>
      <point x="354" y="163"/>
      <point x="323" y="171"/>
      <point x="323" y="194" type="curve" smooth="yes"/>
      <point x="323" y="236"/>
      <point x="430" y="249"/>
      <point x="508" y="266" type="curve"/>
      <point x="113" y="277" type="line"/>
      <point x="104" y="245"/>
      <point x="99" y="215"/>
      <point x="99" y="187" type="curve" smooth="yes"/>
    </contour>
    <contour>
      <point x="39" y="230" type="line"/>
      <point x="775" y="230" type="line"/>
      <point x="797" y="342" type="line"/>
      <point x="61" y="342" type="line"/>
    </contour>
    <contour>
      <point x="66" y="368" type="line"/>
      <point x="802" y="368" type="line"/>
      <point x="825" y="480" type="line"/>
      <point x="89" y="480" type="line"/>
    </contour>
    <contour>
      <point x="316" y="421" type="curve"/>
      <point x="747" y="410" type="line"/>
      <point x="764" y="447"/>
      <point x="771" y="482"/>
      <point x="771" y="513" type="curve" smooth="yes"/>
      <point x="771" y="641"/>
      <point x="644" y="717"/>
      <point x="465" y="717" type="curve" smooth="yes"/>
      <point x="388" y="717"/>
      <point x="303" y="703"/>
      <point x="222" y="678" type="curve"/>
      <point x="254" y="501" type="line"/>
      <point x="301" y="517"/>
      <point x="398" y="537"/>
      <point x="464" y="537" type="curve" smooth="yes"/>
      <point x="509" y="537"/>
      <point x="543" y="528"/>
      <point x="543" y="507" type="curve" smooth="yes"/>
      <point x="543" y="473"/>
      <point x="459" y="445"/>
    </contour>
  </outline>
</glyph>
<glyph name="rightanglebracket-math" format="2">
  <advance width="404"/>
  <unicode hex="27E9"/>
  <outline>
    <contour>
      <point x="314" y="742" type="line"/>
      <point x="105" y="742" type="line"/>
      <point x="173" y="274" type="line"/>
      <point x="-82" y="-194" type="line"/>
      <point x="127" y="-194" type="line"/>
      <point x="393" y="274" type="line"/>
    </contour>
  </outline>
</glyph>
<glyph name="Iacute_J.loclNLD.ss01" format="2">
  <advance width="729"/>
  <outline>
    <contour>
      <point x="278" y="-110" type="curve" smooth="yes"/>
      <point x="489" y="-110"/>
      <point x="621" y="-8"/>
      <point x="665" y="211" type="curve" smooth="yes"/>
      <point x="763" y="700" type="line"/>
      <point x="527" y="700" type="line"/>
      <point x="431" y="218" type="line" smooth="yes"/>
      <point x="411" y="115"/>
      <point x="371" y="78"/>
      <point x="288" y="78" type="curve" smooth="yes"/>
      <point x="221" y="78"/>
      <point x="151" y="100"/>
      <point x="87" y="144" type="curve"/>
      <point x="-27" y="-25" type="line"/>
      <point x="47" y="-77"/>
      <point x="144" y="-110"/>
    </contour>
    <contour>
      <point x="43" y="236" type="line"/>
      <point x="279" y="236" type="line"/>
      <point x="372" y="700" type="line"/>
      <point x="136" y="700" type="line"/>
    </contour>
    <contour>
      <point x="160" y="757" type="line"/>
      <point x="310" y="757" type="line"/>
      <point x="539" y="917" type="line"/>
      <point x="324" y="917" type="line"/>
    </contour>
    <contour>
      <point x="550" y="757" type="line"/>
      <point x="700" y="757" type="line"/>
      <point x="929" y="917" type="line"/>
      <point x="714" y="917" type="line"/>
    </contour>
  </outline>
</glyph>
<glyph name="M.ss01" format="2">
  <advance width="1212"/>
  <anchor x="549" y="0" name="bottom"/>
  <anchor x="753" y="700" name="top"/>
  <outline>
    <contour>
      <point x="2" y="0" type="line"/>
      <point x="238" y="0" type="line"/>
      <point x="320" y="410" type="line" smooth="yes"/>
      <point x="335" y="487"/>
      <point x="382" y="525"/>
      <point x="440" y="525" type="curve" smooth="yes"/>
      <point x="497" y="525"/>
      <point x="525" y="489"/>
      <point x="511" y="418" type="curve" smooth="yes"/>
      <point x="428" y="0" type="line"/>
      <point x="664" y="0" type="line"/>
      <point x="746" y="410" type="line" smooth="yes"/>
      <point x="761" y="487"/>
      <point x="812" y="525"/>
      <point x="874" y="525" type="curve" smooth="yes"/>
      <point x="935" y="525"/>
      <point x="967" y="489"/>
      <point x="953" y="418" type="curve" smooth="yes"/>
      <point x="870" y="0" type="line"/>
      <point x="1106" y="0" type="line"/>
      <point x="1191" y="425" type="line" smooth="yes"/>
      <point x="1229" y="615"/>
      <point x="1130" y="716"/>
      <point x="975" y="716" type="curve" smooth="yes"/>
      <point x="857" y="716"/>
      <point x="760" y="664"/>
      <point x="695" y="559" type="curve"/>
      <point x="762" y="551" type="line"/>
      <point x="749" y="660"/>
      <point x="684" y="716"/>
      <point x="566" y="716" type="curve" smooth="yes"/>
      <point x="451" y="716"/>
      <point x="372" y="662"/>
      <point x="319" y="565" type="curve"/>
      <point x="334" y="524" type="line"/>
      <point x="370" y="700" type="line"/>
      <point x="142" y="700" type="line"/>
    </contour>
  </outline>
</glyph>
<glyph name="Nje-cy.ss01" format="2">
  <advance width="1142"/>
  <outline>
    <contour>
      <point x="753" y="-16" type="curve" smooth="yes"/>
      <point x="984" y="-16"/>
      <point x="1117" y="98"/>
      <point x="1117" y="268" type="curve" smooth="yes"/>
      <point x="1117" y="401"/>
      <point x="1035" y="463"/>
      <point x="892" y="463" type="curve" smooth="yes"/>
      <point x="757" y="463" type="line"/>
      <point x="804" y="700" type="line"/>
      <point x="572" y="700" type="line"/>
      <point x="523" y="455" type="line"/>
      <point x="330" y="455" type="line"/>
      <point x="379" y="700" type="line"/>
      <point x="147" y="700" type="line"/>
      <point x="7" y="0" type="line"/>
      <point x="239" y="0" type="line"/>
      <point x="294" y="272" type="line"/>
      <point x="487" y="272" type="line"/>
      <point x="482" y="250" type="line" smooth="yes"/>
      <point x="443" y="78"/>
      <point x="543" y="-16"/>
    </contour>
    <contour>
      <point x="774" y="161" type="curve" smooth="yes"/>
      <point x="722" y="161"/>
      <point x="702" y="185"/>
      <point x="710" y="227" type="curve" smooth="yes"/>
      <point x="724" y="298" type="line"/>
      <point x="813" y="298" type="line" smooth="yes"/>
      <point x="842" y="298"/>
      <point x="880" y="298"/>
      <point x="880" y="250" type="curve" smooth="yes"/>
      <point x="880" y="200"/>
      <point x="840" y="161"/>
    </contour>
  </outline>
</glyph>
<glyph name="W.ss01" format="2">
  <advance width="1218"/>
  <anchor x="554" y="0" name="bottom"/>
  <anchor x="697" y="700" name="top"/>
  <outline>
    <contour>
      <point x="346" y="-16" type="curve" smooth="yes"/>
      <point x="460" y="-16"/>
      <point x="555" y="25"/>
      <point x="621" y="94" type="curve"/>
      <point x="537" y="94" type="line"/>
      <point x="584" y="25"/>
      <point x="666" y="-16"/>
      <point x="771" y="-16" type="curve" smooth="yes"/>
      <point x="1000" y="-16"/>
      <point x="1120" y="76"/>
      <point x="1166" y="295" type="curve" smooth="yes"/>
      <point x="1252" y="700" type="line"/>
      <point x="1022" y="700" type="line"/>
      <point x="935" y="290" type="line" smooth="yes"/>
      <point x="919" y="214"/>
      <point x="885" y="175"/>
      <point x="804" y="175" type="curve" smooth="yes"/>
      <point x="737" y="175"/>
      <point x="709" y="216"/>
      <point x="723" y="282" type="curve" smooth="yes"/>
      <point x="812" y="700" type="line"/>
      <point x="582" y="700" type="line"/>
      <point x="495" y="290" type="line" smooth="yes"/>
      <point x="479" y="214"/>
      <point x="445" y="175"/>
      <point x="373" y="175" type="curve" smooth="yes"/>
      <point x="307" y="175"/>
      <point x="268" y="200"/>
      <point x="282" y="267" type="curve" smooth="yes"/>
      <point x="371" y="700" type="line"/>
      <point x="141" y="700" type="line"/>
      <point x="57" y="305" type="line" smooth="yes"/>
      <point x="15" y="104"/>
      <point x="151" y="-16"/>
    </contour>
  </outline>
</glyph>
<glyph name="a.sc.ss01" format="2">
  <advance width="700"/>
  <anchor x="295" y="0" name="bottom"/>
  <anchor x="598" y="0" name="ogonek"/>
  <anchor x="411" y="582" name="top"/>
  <anchor x="115" y="582" name="topleft"/>
  <outline>
    <contour>
      <point x="-7" y="0" type="line"/>
      <point x="219" y="0" type="line"/>
      <point x="283" y="321" type="line" smooth="yes"/>
      <point x="297" y="389"/>
      <point x="330" y="417"/>
      <point x="374" y="417" type="curve" smooth="yes"/>
      <point x="422" y="417"/>
      <point x="445" y="386"/>
      <point x="431" y="314" type="curve" smooth="yes"/>
      <point x="368" y="0" type="line"/>
      <point x="598" y="0" type="line"/>
      <point x="658" y="298" type="line" smooth="yes"/>
      <point x="695" y="484"/>
      <point x="586" y="597"/>
      <point x="398" y="597" type="curve" smooth="yes"/>
      <point x="218" y="597"/>
      <point x="93" y="502"/>
      <point x="58" y="327" type="curve" smooth="yes"/>
    </contour>
    <contour>
      <point x="159" y="106" type="line"/>
      <point x="469" y="106" type="line"/>
      <point x="504" y="274" type="line"/>
      <point x="194" y="274" type="line"/>
    </contour>
  </outline>
</glyph>
<glyph name="a.ss01" format="2">
  <advance width="761"/>
  <anchor x="312" y="0" name="bottom"/>
  <anchor x="663" y="0" name="ogonek"/>
  <anchor x="405" y="547" name="top"/>
  <outline>
    <contour>
      <point x="245" y="-10" type="curve" smooth="yes"/>
      <point x="378" y="-10"/>
      <point x="464" y="97"/>
      <point x="493" y="274" type="curve" smooth="yes"/>
      <point x="527" y="489"/>
      <point x="438" y="557"/>
      <point x="311" y="557" type="curve" smooth="yes"/>
      <point x="154" y="557"/>
      <point x="20" y="423"/>
      <point x="20" y="243" type="curve" smooth="yes"/>
      <point x="20" y="80"/>
      <point x="136" y="-10"/>
    </contour>
    <contour>
      <point x="330" y="168" type="curve" smooth="yes"/>
      <point x="279" y="168"/>
      <point x="249" y="203"/>
      <point x="249" y="254" type="curve" smooth="yes"/>
      <point x="249" y="330"/>
      <point x="289" y="379"/>
      <point x="348" y="379" type="curve" smooth="yes"/>
      <point x="399" y="379"/>
      <point x="429" y="344"/>
      <point x="429" y="293" type="curve" smooth="yes"/>
      <point x="429" y="217"/>
      <point x="389" y="168"/>
    </contour>
    <contour>
      <point x="597" y="-10" type="curve" smooth="yes"/>
      <point x="630" y="-10"/>
      <point x="661" y="-6"/>
      <point x="697" y="4" type="curve"/>
      <point x="721" y="169" type="line"/>
      <point x="711" y="164"/>
      <point x="695" y="161"/>
      <point x="682" y="161" type="curve" smooth="yes"/>
      <point x="651" y="161"/>
      <point x="631" y="176"/>
      <point x="640" y="222" type="curve" smooth="yes"/>
      <point x="705" y="547" type="line"/>
      <point x="479" y="547" type="line"/>
      <point x="464" y="472" type="line"/>
      <point x="435" y="274" type="line"/>
      <point x="422" y="202" type="line"/>
      <point x="416" y="172" type="line" smooth="yes"/>
      <point x="396" y="73"/>
      <point x="456" y="-10"/>
    </contour>
  </outline>
</glyph>
<glyph name="backslash.case" format="2">
  <advance width="440"/>
  <outline>
    <contour>
      <point x="405" y="-100" type="line"/>
      <point x="256" y="842" type="line"/>
      <point x="64" y="842" type="line"/>
      <point x="213" y="-100" type="line"/>
    </contour>
  </outline>
</glyph>
<glyph name="brevecomb-cy" format="2">
  <anchor x="282" y="547" name="_top"/>
  <outline>
    <contour>
      <point x="299" y="592" type="curve" smooth="yes"/>
      <point x="436" y="592"/>
      <point x="504" y="644"/>
      <point x="527" y="767" type="curve"/>
      <point x="379" y="767" type="line"/>
      <point x="370" y="720"/>
      <point x="351" y="701"/>
      <point x="314" y="701" type="curve" smooth="yes"/>
      <point x="275" y="701"/>
      <point x="260" y="722"/>
      <point x="269" y="767" type="curve"/>
      <point x="125" y="767" type="line"/>
      <point x="102" y="648"/>
      <point x="158" y="592"/>
    </contour>
  </outline>
</glyph>
<glyph name="brevecomb.narrow" format="2">
  <anchor x="355" y="547" name="_top"/>
  <anchor x="396" y="750" name="top"/>
  <outline>
    <contour>
      <point x="380" y="597" type="curve" smooth="yes"/>
      <point x="494" y="597"/>
      <point x="565" y="662"/>
      <point x="583" y="767" type="curve"/>
      <point x="450" y="767" type="line"/>
      <point x="444" y="726"/>
      <point x="424" y="704"/>
      <point x="389" y="704" type="curve" smooth="yes"/>
      <point x="354" y="704"/>
      <point x="336" y="730"/>
      <point x="342" y="767" type="curve"/>
      <point x="215" y="767" type="line"/>
      <point x="201" y="662"/>
      <point x="272" y="597"/>
    </contour>
  </outline>
</glyph>
<glyph name="cent.BRACKET.170" format="2">
  <advance width="614"/>
  <outline>
    <contour>
      <point x="317" y="-10" type="curve" smooth="yes"/>
      <point x="446" y="-10"/>
      <point x="547" y="46"/>
      <point x="601" y="142" type="curve"/>
      <point x="436" y="238" type="line"/>
      <point x="410" y="187"/>
      <point x="378" y="168"/>
      <point x="334" y="168" type="curve" smooth="yes"/>
      <point x="278" y="168"/>
      <point x="248" y="205"/>
      <point x="248" y="257" type="curve" smooth="yes"/>
      <point x="248" y="330"/>
      <point x="292" y="379"/>
      <point x="353" y="379" type="curve" smooth="yes"/>
      <point x="391" y="379"/>
      <point x="424" y="360"/>
      <point x="443" y="309" type="curve"/>
      <point x="635" y="397" type="line"/>
      <point x="596" y="496"/>
      <point x="494" y="557"/>
      <point x="364" y="557" type="curve" smooth="yes"/>
      <point x="162" y="557"/>
      <point x="19" y="423"/>
      <point x="19" y="243" type="curve" smooth="yes"/>
      <point x="19" y="90"/>
      <point x="137" y="-10"/>
    </contour>
    <contour>
      <point x="182" y="-120" type="line"/>
      <point x="323" y="-120" type="line"/>
      <point x="349" y="10" type="line"/>
      <point x="208" y="10" type="line"/>
    </contour>
    <contour>
      <point x="313" y="537" type="line"/>
      <point x="454" y="537" type="line"/>
      <point x="480" y="667" type="line"/>
      <point x="339" y="667" type="line"/>
    </contour>
  </outline>
</glyph>
<glyph name="descender-cy" format="2">
  <advance width="388"/>
  <anchor x="-19" y="0" name="_bottomleft"/>
  <outline>
    <contour>
      <point x="51" y="-101" type="line"/>
      <point x="260" y="-101" type="line"/>
      <point x="316" y="177" type="line"/>
      <point x="17" y="177" type="line"/>
      <point x="-19" y="0" type="line"/>
      <point x="120" y="0" type="line"/>
      <point x="81" y="48" type="line"/>
    </contour>
  </outline>
</glyph>
<glyph name="eight.dnom" format="2">
  <advance width="430"/>
  <outline>
    <contour>
      <point x="180" y="-10" type="curve" smooth="yes"/>
      <point x="302" y="-10"/>
      <point x="389" y="45"/>
      <point x="389" y="128" type="curve" smooth="yes"/>
      <point x="389" y="207"/>
      <point x="305" y="249"/>
      <point x="190" y="249" type="curve" smooth="yes"/>
      <point x="72" y="249"/>
      <point x="-19" y="204"/>
      <point x="-19" y="120" type="curve" smooth="yes"/>
      <point x="-19" y="41"/>
      <point x="62" y="-10"/>
    </contour>
    <contour>
      <point x="182" y="89" type="curve" smooth="yes"/>
      <point x="154" y="89"/>
      <point x="137" y="103"/>
      <point x="137" y="125" type="curve" smooth="yes"/>
      <point x="137" y="151"/>
      <point x="158" y="169"/>
      <point x="188" y="169" type="curve" smooth="yes"/>
      <point x="216" y="169"/>
      <point x="233" y="155"/>
      <point x="233" y="133" type="curve" smooth="yes"/>
      <point x="233" y="107"/>
      <point x="212" y="89"/>
    </contour>
    <contour>
      <point x="216" y="184" type="curve" smooth="yes"/>
      <point x="328" y="184"/>
      <point x="411" y="225"/>
      <point x="411" y="304" type="curve" smooth="yes"/>
      <point x="411" y="379"/>
      <point x="336" y="425"/>
      <point x="224" y="425" type="curve" smooth="yes"/>
      <point x="109" y="425"/>
      <point x="29" y="374"/>
      <point x="29" y="296" type="curve" smooth="yes"/>
      <point x="29" y="223"/>
      <point x="108" y="184"/>
    </contour>
    <contour>
      <point x="218" y="261" type="curve" smooth="yes"/>
      <point x="195" y="261"/>
      <point x="180" y="274"/>
      <point x="180" y="292" type="curve" smooth="yes"/>
      <point x="180" y="312"/>
      <point x="196" y="326"/>
      <point x="222" y="326" type="curve" smooth="yes"/>
      <point x="246" y="326"/>
      <point x="260" y="314"/>
      <point x="260" y="296" type="curve" smooth="yes"/>
      <point x="260" y="276"/>
      <point x="243" y="261"/>
    </contour>
  </outline>
</glyph>
<glyph name="exclamdown.sc" format="2">
  <advance width="314"/>
  <outline>
    <contour>
      <point x="259" y="334" type="line"/>
      <point x="79" y="334" type="line"/>
      <point x="-27" y="0" type="line"/>
      <point x="233" y="0" type="line"/>
    </contour>
    <contour>
      <point x="206" y="592" type="curve" smooth="yes"/>
      <point x="121" y="592"/>
      <point x="67" y="535"/>
      <point x="67" y="473" type="curve" smooth="yes"/>
      <point x="67" y="420"/>
      <point x="112" y="374"/>
      <point x="192" y="374" type="curve" smooth="yes"/>
      <point x="277" y="374"/>
      <point x="331" y="427"/>
      <point x="331" y="491" type="curve" smooth="yes"/>
      <point x="331" y="543"/>
      <point x="286" y="592"/>
    </contour>
  </outline>
</glyph>
<glyph name="g.sc" format="2">
  <advance width="666"/>
  <anchor x="297" y="0" name="bottom"/>
  <anchor x="427" y="583" name="top"/>
  <outline>
    <contour>
      <point x="335" y="-15" type="curve" smooth="yes"/>
      <point x="431" y="-15"/>
      <point x="517" y="9"/>
      <point x="582" y="53" type="curve"/>
      <point x="495" y="212" type="line"/>
      <point x="449" y="176"/>
      <point x="407" y="165"/>
      <point x="368" y="165" type="curve" smooth="yes"/>
      <point x="299" y="165"/>
      <point x="257" y="204"/>
      <point x="257" y="263" type="curve" smooth="yes"/>
      <point x="257" y="355"/>
      <point x="313" y="417"/>
      <point x="400" y="417" type="curve" smooth="yes"/>
      <point x="450" y="417"/>
      <point x="488" y="402"/>
      <point x="525" y="353" type="curve"/>
      <point x="690" y="477" type="line"/>
      <point x="632" y="556"/>
      <point x="540" y="597"/>
      <point x="410" y="597" type="curve" smooth="yes"/>
      <point x="184" y="597"/>
      <point x="25" y="456"/>
      <point x="25" y="249" type="curve" smooth="yes"/>
      <point x="25" y="92"/>
      <point x="150" y="-15"/>
    </contour>
    <contour>
      <point x="383" y="56" type="line"/>
      <point x="582" y="53" type="line"/>
      <point x="632" y="304" type="line"/>
      <point x="433" y="304" type="line"/>
    </contour>
  </outline>
</glyph>
<glyph name="iacute_j.loclNLD" format="2">
  <advance width="658"/>
  <outline>
    <contour>
      <point x="-5" y="0" type="line"/>
      <point x="220" y="0" type="line"/>
      <point x="329" y="547" type="line"/>
      <point x="104" y="547" type="line"/>
    </contour>
    <contour>
      <point x="124" y="607" type="line"/>
      <point x="274" y="607" type="line"/>
      <point x="503" y="767" type="line"/>
      <point x="288" y="767" type="line"/>
    </contour>
    <contour>
      <point x="273" y="-204" type="curve" smooth="yes"/>
      <point x="424" y="-204"/>
      <point x="530" y="-113"/>
      <point x="559" y="28" type="curve" smooth="yes"/>
      <point x="662" y="547" type="line"/>
      <point x="436" y="547" type="line"/>
      <point x="333" y="30" type="line" smooth="yes"/>
      <point x="324" y="-14"/>
      <point x="300" y="-33"/>
      <point x="273" y="-33" type="curve" smooth="yes"/>
      <point x="255" y="-33"/>
      <point x="238" y="-28"/>
      <point x="225" y="-20" type="curve"/>
      <point x="140" y="-177" type="line"/>
      <point x="171" y="-195"/>
      <point x="220" y="-204"/>
    </contour>
    <contour>
      <point x="456" y="607" type="line"/>
      <point x="606" y="607" type="line"/>
      <point x="835" y="767" type="line"/>
      <point x="620" y="767" type="line"/>
    </contour>
  </outline>
</glyph>
<glyph name="ij.sc" format="2">
  <advance width="642"/>
  <anchor x="212" y="582" name="top"/>
  <outline>
    <contour>
      <point x="250" y="-15" type="curve" smooth="yes"/>
      <point x="435" y="-15"/>
      <point x="554" y="72"/>
      <point x="590" y="255" type="curve" smooth="yes"/>
      <point x="655" y="582" type="line"/>
      <point x="425" y="582" type="line"/>
      <point x="361" y="262" type="line" smooth="yes"/>
      <point x="346" y="189"/>
      <point x="320" y="162"/>
      <point x="260" y="162" type="curve" smooth="yes"/>
      <point x="205" y="162"/>
      <point x="146" y="180"/>
      <point x="89" y="218" type="curve"/>
      <point x="-21" y="58" type="line"/>
      <point x="45" y="13"/>
      <point x="131" y="-15"/>
    </contour>
    <contour>
      <point x="42" y="285" type="line"/>
      <point x="272" y="285" type="line"/>
      <point x="331" y="582" type="line"/>
      <point x="101" y="582" type="line"/>
    </contour>
  </outline>
</glyph>
<glyph name="k.sc" format="2">
  <advance width="678"/>
  <anchor x="287" y="0" name="bottom"/>
  <anchor x="403" y="582" name="top"/>
  <outline>
    <contour>
      <point x="227" y="115" type="line"/>
      <point x="294" y="180" type="line"/>
      <point x="450" y="308" type="line"/>
      <point x="751" y="582" type="line"/>
      <point x="488" y="582" type="line"/>
      <point x="261" y="364" type="line"/>
    </contour>
    <contour>
      <point x="-2" y="0" type="line"/>
      <point x="224" y="0" type="line"/>
      <point x="340" y="582" type="line"/>
      <point x="114" y="582" type="line"/>
    </contour>
    <contour>
      <point x="390" y="0" type="line"/>
      <point x="646" y="0" type="line"/>
      <point x="430" y="363" type="line"/>
      <point x="260" y="213" type="line"/>
    </contour>
  </outline>
</glyph>
<glyph name="lje-cy.ss01" format="2">
  <advance width="1003"/>
  <outline>
    <contour>
      <point x="-41" y="0" type="line"/>
      <point x="-23" y="-9"/>
      <point x="13" y="-14"/>
      <point x="56" y="-14" type="curve" smooth="yes"/>
      <point x="195" y="-14"/>
      <point x="263" y="82"/>
      <point x="315" y="300" type="curve" smooth="yes"/>
      <point x="344" y="421" type="line"/>
      <point x="288" y="371" type="line"/>
      <point x="471" y="371" type="line"/>
      <point x="683" y="547" type="line"/>
      <point x="174" y="547" type="line"/>
      <point x="119" y="309" type="line" smooth="yes"/>
      <point x="96" y="210"/>
      <point x="70" y="182"/>
      <point x="27" y="182" type="curve" smooth="yes"/>
      <point x="20" y="182"/>
      <point x="2" y="182"/>
      <point x="-5" y="183" type="curve"/>
    </contour>
    <contour>
      <point x="646" y="-16" type="curve" smooth="yes"/>
      <point x="852" y="-16"/>
      <point x="976" y="79"/>
      <point x="976" y="236" type="curve" smooth="yes"/>
      <point x="976" y="352"/>
      <point x="910" y="410"/>
      <point x="777" y="410" type="curve" smooth="yes"/>
      <point x="727" y="410"/>
      <point x="682" y="402"/>
      <point x="651" y="386" type="curve"/>
      <point x="683" y="547" type="line"/>
      <point x="458" y="547" type="line"/>
      <point x="394" y="230" type="line" smooth="yes"/>
      <point x="362" y="70"/>
      <point x="449" y="-16"/>
    </contour>
    <contour>
      <point x="665" y="136" type="curve" smooth="yes"/>
      <point x="623" y="136"/>
      <point x="606" y="159"/>
      <point x="614" y="200" type="curve" smooth="yes"/>
      <point x="622" y="241" type="line"/>
      <point x="641" y="256"/>
      <point x="668" y="265"/>
      <point x="694" y="265" type="curve" smooth="yes"/>
      <point x="728" y="265"/>
      <point x="745" y="248"/>
      <point x="745" y="213" type="curve" smooth="yes"/>
      <point x="745" y="167"/>
      <point x="713" y="136"/>
    </contour>
  </outline>
</glyph>
<glyph name="ohorn.sc" format="2">
  <advance width="727"/>
  <anchor x="309" y="0" name="bottom"/>
  <anchor x="425" y="582" name="top"/>
  <outline>
    <contour>
      <point x="331" y="-15" type="curve" smooth="yes"/>
      <point x="549" y="-15"/>
      <point x="708" y="125"/>
      <point x="708" y="333" type="curve" smooth="yes"/>
      <point x="708" y="403"/>
      <point x="684" y="466"/>
      <point x="639" y="510" type="curve"/>
      <point x="528" y="448" type="line"/>
      <point x="541" y="445"/>
      <point x="554" y="444"/>
      <point x="569" y="444" type="curve" smooth="yes"/>
      <point x="689" y="444"/>
      <point x="777" y="511"/>
      <point x="777" y="634" type="curve" smooth="yes"/>
      <point x="777" y="679"/>
      <point x="763" y="716"/>
      <point x="740" y="745" type="curve"/>
      <point x="612" y="700" type="line"/>
      <point x="624" y="686"/>
      <point x="632" y="665"/>
      <point x="632" y="643" type="curve" smooth="yes"/>
      <point x="632" y="606"/>
      <point x="605" y="578"/>
      <point x="577" y="578" type="curve" smooth="yes"/>
      <point x="542" y="578"/>
      <point x="496" y="597"/>
      <point x="402" y="597" type="curve" smooth="yes"/>
      <point x="185" y="597"/>
      <point x="25" y="457"/>
      <point x="25" y="249" type="curve" smooth="yes"/>
      <point x="25" y="94"/>
      <point x="145" y="-15"/>
    </contour>
    <contour>
      <point x="351" y="165" type="curve" smooth="yes"/>
      <point x="294" y="165"/>
      <point x="257" y="204"/>
      <point x="257" y="262" type="curve" smooth="yes"/>
      <point x="257" y="345"/>
      <point x="302" y="417"/>
      <point x="383" y="417" type="curve" smooth="yes"/>
      <point x="440" y="417"/>
      <point x="476" y="377"/>
      <point x="476" y="319" type="curve" smooth="yes"/>
      <point x="476" y="237"/>
      <point x="432" y="165"/>
    </contour>
  </outline>
</glyph>
<glyph name="questiondown.sc" format="2">
  <advance width="546"/>
  <outline>
    <contour>
      <point x="385" y="332" type="curve"/>
      <point x="181" y="332" type="line"/>
      <point x="169" y="268"/>
      <point x="2" y="249"/>
      <point x="2" y="126" type="curve" smooth="yes"/>
      <point x="2" y="43"/>
      <point x="100" y="-12"/>
      <point x="234" y="-12" type="curve" smooth="yes"/>
      <point x="361" y="-12"/>
      <point x="466" y="35"/>
      <point x="521" y="111" type="curve"/>
      <point x="378" y="200" type="line"/>
      <point x="358" y="172"/>
      <point x="324" y="154"/>
      <point x="287" y="154" type="curve" smooth="yes"/>
      <point x="263" y="154"/>
      <point x="246" y="162"/>
      <point x="246" y="179" type="curve" smooth="yes"/>
      <point x="246" y="223"/>
      <point x="368" y="248"/>
    </contour>
    <contour>
      <point x="316" y="590" type="curve" smooth="yes"/>
      <point x="231" y="590"/>
      <point x="177" y="533"/>
      <point x="177" y="471" type="curve" smooth="yes"/>
      <point x="177" y="418"/>
      <point x="222" y="372"/>
      <point x="302" y="372" type="curve" smooth="yes"/>
      <point x="387" y="372"/>
      <point x="441" y="425"/>
      <point x="441" y="489" type="curve" smooth="yes"/>
      <point x="441" y="541"/>
      <point x="396" y="590"/>
    </contour>
  </outline>
</glyph>
<glyph name="quotesingle.sc" format="2">
  <advance width="254"/>
  <outline>
    <contour>
      <point x="57" y="322" type="line"/>
      <point x="217" y="322" type="line"/>
      <point x="284" y="582" type="line"/>
      <point x="94" y="582" type="line"/>
    </contour>
  </outline>
</glyph>
<glyph name="schwa-cy.ss01" format="2">
  <advance width="642"/>
  <anchor x="376" y="547" name="top"/>
  <outline>
    <contour>
      <point x="320" y="557" type="curve" smooth="yes"/>
      <point x="238" y="557"/>
      <point x="157" y="540"/>
      <point x="82" y="489" type="curve"/>
      <point x="176" y="352" type="line"/>
      <point x="211" y="378"/>
      <point x="253" y="390"/>
      <point x="292" y="390" type="curve" smooth="yes"/>
      <point x="366" y="390"/>
      <point x="403" y="364"/>
      <point x="403" y="296" type="curve" smooth="yes"/>
      <point x="403" y="220"/>
      <point x="375" y="144"/>
      <point x="293" y="144" type="curve" smooth="yes"/>
      <point x="236" y="144"/>
      <point x="200" y="183"/>
      <point x="215" y="246" type="curve"/>
      <point x="125" y="183" type="line"/>
      <point x="423" y="239" type="line"/>
      <point x="445" y="353" type="line"/>
      <point x="7" y="272" type="line"/>
      <point x="-13" y="86"/>
      <point x="114" y="-10"/>
      <point x="281" y="-10" type="curve" smooth="yes"/>
      <point x="487" y="-10"/>
      <point x="622" y="124"/>
      <point x="622" y="304" type="curve" smooth="yes"/>
      <point x="622" y="459"/>
      <point x="501" y="557"/>
    </contour>
  </outline>
</glyph>
<glyph name="six.tf" format="2">
  <advance width="700"/>
  <outline>
    <contour>
      <point x="353" y="-16" type="curve" smooth="yes"/>
      <point x="537" y="-16"/>
      <point x="671" y="88"/>
      <point x="671" y="251" type="curve" smooth="yes"/>
      <point x="671" y="383"/>
      <point x="558" y="453"/>
      <point x="440" y="453" type="curve" smooth="yes"/>
      <point x="339" y="453"/>
      <point x="276" y="415"/>
      <point x="231" y="337" type="curve"/>
      <point x="280" y="308" type="line"/>
      <point x="281" y="328"/>
      <point x="282" y="347"/>
      <point x="286" y="367" type="curve" smooth="yes"/>
      <point x="306" y="467"/>
      <point x="377" y="533"/>
      <point x="490" y="533" type="curve" smooth="yes"/>
      <point x="549" y="533"/>
      <point x="590" y="524"/>
      <point x="627" y="499" type="curve"/>
      <point x="734" y="661" type="line"/>
      <point x="686" y="696"/>
      <point x="601" y="716"/>
      <point x="505" y="716" type="curve" smooth="yes"/>
      <point x="175" y="716"/>
      <point x="35" y="473"/>
      <point x="35" y="260" type="curve" smooth="yes"/>
      <point x="35" y="87"/>
      <point x="150" y="-16"/>
    </contour>
    <contour>
      <point x="350" y="145" type="curve" smooth="yes"/>
      <point x="300" y="145"/>
      <point x="268" y="172"/>
      <point x="268" y="212" type="curve" smooth="yes"/>
      <point x="268" y="261"/>
      <point x="309" y="292"/>
      <point x="359" y="292" type="curve" smooth="yes"/>
      <point x="410" y="292"/>
      <point x="440" y="268"/>
      <point x="440" y="223" type="curve" smooth="yes"/>
      <point x="440" y="174"/>
      <point x="398" y="145"/>
    </contour>
  </outline>
</glyph>
<glyph name="udieresis.sc.alt.BRACKET.133" format="2">
  <advance width="693"/>
  <outline>
    <contour>
      <point x="307" y="-15" type="curve" smooth="yes"/>
      <point x="495" y="-15"/>
      <point x="606" y="79"/>
      <point x="641" y="255" type="curve" smooth="yes"/>
      <point x="706" y="582" type="line"/>
      <point x="480" y="582" type="line"/>
      <point x="417" y="268" type="line" smooth="yes"/>
      <point x="402" y="192"/>
      <point x="381" y="165"/>
      <point x="335" y="165" type="curve" smooth="yes"/>
      <point x="286" y="165"/>
      <point x="263" y="196"/>
      <point x="277" y="268" type="curve" smooth="yes"/>
      <point x="340" y="582" type="line"/>
      <point x="109" y="582" type="line"/>
      <point x="46" y="265" type="line" smooth="yes"/>
      <point x="13" y="98"/>
      <point x="116" y="-15"/>
    </contour>
    <contour>
      <point x="372" y="361" type="curve" smooth="yes"/>
      <point x="403" y="361"/>
      <point x="431" y="384"/>
      <point x="431" y="420" type="curve" smooth="yes"/>
      <point x="431" y="450"/>
      <point x="409" y="469"/>
      <point x="380" y="469" type="curve" smooth="yes"/>
      <point x="349" y="469"/>
      <point x="321" y="445"/>
      <point x="321" y="409" type="curve" smooth="yes"/>
      <point x="321" y="379"/>
      <point x="343" y="361"/>
    </contour>
    <contour>
      <point x="398" y="489" type="curve" smooth="yes"/>
      <point x="429" y="489"/>
      <point x="457" y="512"/>
      <point x="457" y="548" type="curve" smooth="yes"/>
      <point x="457" y="578"/>
      <point x="435" y="597"/>
      <point x="406" y="597" type="curve" smooth="yes"/>
      <point x="375" y="597"/>
      <point x="347" y="573"/>
      <point x="347" y="537" type="curve" smooth="yes"/>
      <point x="347" y="507"/>
      <point x="369" y="489"/>
    </contour>
  </outline>
</glyph>
<glyph name="w.ss01" format="2">
  <advance width="997"/>
  <anchor x="442" y="0" name="bottom"/>
  <anchor x="550" y="547" name="top"/>
  <outline>
    <contour>
      <point x="274" y="-10" type="curve" smooth="yes"/>
      <point x="360" y="-10"/>
      <point x="451" y="20"/>
      <point x="521" y="124" type="curve"/>
      <point x="429" y="124" type="line"/>
      <point x="463" y="29"/>
      <point x="546" y="-10"/>
      <point x="639" y="-10" type="curve" smooth="yes"/>
      <point x="807" y="-10"/>
      <point x="916" y="66"/>
      <point x="951" y="245" type="curve" smooth="yes"/>
      <point x="1011" y="547" type="line"/>
      <point x="787" y="547" type="line"/>
      <point x="731" y="260" type="line" smooth="yes"/>
      <point x="718" y="196"/>
      <point x="697" y="170"/>
      <point x="655" y="170" type="curve" smooth="yes"/>
      <point x="613" y="170"/>
      <point x="593" y="197"/>
      <point x="608" y="271" type="curve" smooth="yes"/>
      <point x="662" y="547" type="line"/>
      <point x="438" y="547" type="line"/>
      <point x="382" y="260" type="line" smooth="yes"/>
      <point x="369" y="196"/>
      <point x="348" y="170"/>
      <point x="307" y="170" type="curve" smooth="yes"/>
      <point x="264" y="170"/>
      <point x="244" y="198"/>
      <point x="259" y="272" type="curve" smooth="yes"/>
      <point x="314" y="547" type="line"/>
      <point x="90" y="547" type="line"/>
      <point x="35" y="265" type="line" smooth="yes"/>
      <point x="3" y="106"/>
      <point x="98" y="-10"/>
    </contour>
  </outline>
</glyph>
